<svg xmlns="http://www.w3.org/2000/svg" viewBox="0 0 512 512">
  <rect width="512" height="512" rx="120" fill="#0f172a"/>
  <path d="M256 120C180.9 120 120 180.9 120 256C120 331.1 180.9 392 256 392C331.1 392 392 331.1 392 256C392 180.9 331.1 120 256 120ZM328 272H272V328C272 336.8 264.8 344 256 344C247.2 344 240 336.8 240 328V272H184C175.2 272 168 264.8 168 256C168 247.2 175.2 240 184 240H240V184C240 175.2 247.2 168 256 168C264.8 168 272 175.2 272 184V240H328C336.8 240 344 247.2 344 256C344 264.8 336.8 272 328 272Z" fill="#ffffff"/>
</svg>
